<?xml version="1.0" standalone="no"?>
<!DOCTYPE svg PUBLIC "-//W3C//DTD SVG 20010904//EN"
 "http://www.w3.org/TR/2001/REC-SVG-20010904/DTD/svg10.dtd">
<svg version="1.0" xmlns="http://www.w3.org/2000/svg"
 width="494.000000pt" height="505.000000pt" viewBox="0 0 494.000000 505.000000"
 preserveAspectRatio="xMidYMid meet">

<g transform="translate(0.000000,505.000000) scale(0.100000,-0.100000)"
fill="#000000" stroke="none">
<path d="M3305 4409 c-243 -95 -227 -93 -665 -95 -395 -1 -483 -8 -627 -45
-197 -50 -329 -125 -484 -276 -54 -53 -99 -90 -100 -82 -5 109 -18 183 -37
201 -28 29 -70 27 -126 -6 -86 -51 -156 -166 -172 -284 l-6 -50 -87 -4 c-126
-6 -216 -52 -257 -130 -30 -57 2 -96 124 -157 34 -17 62 -33 62 -36 0 -2 -24
-40 -54 -84 -127 -186 -170 -322 -169 -536 0 -158 17 -266 67 -416 l31 -96
-56 -54 c-62 -60 -92 -110 -114 -196 -41 -158 13 -341 140 -469 92 -93 225
-144 340 -130 l51 6 27 -56 c98 -199 287 -396 487 -507 163 -90 410 -165 617
-187 149 -17 478 -8 593 15 185 37 312 79 454 153 234 120 416 314 497 528 31
80 34 84 68 90 183 30 318 149 372 327 30 97 24 228 -14 311 -50 108 -136 190
-228 218 l-36 10 18 82 c55 247 48 462 -21 707 -13 45 -13 46 22 92 47 62 103
177 125 257 23 87 23 254 0 332 -20 68 -66 124 -107 133 -21 5 -49 -3 -101
-26 -78 -34 -217 -66 -243 -56 -12 5 -14 12 -7 31 50 130 25 315 -58 436 -81
118 -130 125 -326 49z m-1495 -1381 c379 -151 663 -211 1005 -212 292 -1 508
38 748 133 43 17 81 31 86 31 13 0 87 -174 116 -274 43 -152 47 -199 43 -638
-4 -385 -6 -418 -26 -490 -49 -179 -112 -290 -234 -410 -158 -158 -361 -258
-660 -325 -114 -25 -140 -27 -353 -27 -214 0 -239 1 -358 27 -445 95 -724 297
-901 651 l-52 103 -44 -13 c-73 -22 -157 -18 -220 12 -92 42 -135 85 -182 181
-42 84 -43 89 -43 182 0 75 5 106 21 141 62 135 174 184 284 124 60 -33 78
-57 124 -174 21 -52 42 -101 48 -107 15 -18 58 -16 80 4 16 14 18 34 19 157 0
78 4 177 8 222 l8 81 72 94 c133 173 185 319 185 516 l-1 111 76 -35 c42 -20
110 -49 151 -65z m2226 -779 c100 -48 159 -161 152 -289 -10 -167 -109 -301
-252 -336 -26 -6 -28 -5 -21 12 4 10 11 136 16 279 5 143 11 281 15 308 7 55
22 60 90 26z"/>
<path d="M1875 2746 c-75 -24 -134 -58 -170 -97 -37 -41 -44 -73 -22 -103 18
-25 43 -23 132 11 44 17 108 37 143 43 76 15 112 41 112 80 0 68 -92 99 -195
66z"/>
<path d="M3220 2749 c-30 -12 -40 -27 -40 -60 0 -42 21 -59 105 -80 44 -11
113 -34 153 -51 82 -34 118 -32 128 6 8 34 -1 57 -37 94 -49 50 -147 94 -221
98 -35 2 -74 -1 -88 -7z"/>
<path d="M1885 2467 c-105 -35 -189 -107 -228 -195 -25 -56 -31 -96 -28 -176
1 -49 11 -40 40 38 74 201 267 302 446 235 31 -12 72 -35 91 -51 59 -52 54
-15 -9 66 -60 75 -212 116 -312 83z"/>
<path d="M3183 2466 c-82 -27 -126 -65 -167 -143 -21 -41 -13 -41 32 -2 117
103 292 98 416 -12 49 -43 84 -98 112 -177 26 -77 31 -82 40 -47 11 44 -3 131
-29 189 -69 150 -258 240 -404 192z"/>
<path d="M1974 2279 c-40 -11 -66 -39 -37 -39 30 0 66 -45 66 -82 0 -22 -8
-38 -27 -55 -37 -32 -71 -29 -108 7 -17 17 -33 28 -36 25 -12 -12 -14 -134 -3
-168 33 -98 115 -160 211 -160 242 0 304 373 78 467 -41 17 -96 19 -144 5z"/>
<path d="M3132 2273 l-33 -16 30 -13 c62 -26 76 -90 29 -134 -38 -35 -96 -22
-121 27 l-14 26 -13 -38 c-19 -57 -8 -153 24 -207 95 -162 326 -132 376 48 37
130 -21 275 -123 313 -41 16 -117 13 -155 -6z"/>
<path d="M898 2089 c-27 -11 -44 -41 -33 -59 3 -5 20 -10 37 -10 81 0 139 -66
157 -178 15 -91 42 -117 75 -70 36 50 13 184 -41 248 -59 69 -128 93 -195 69z"/>
<path d="M2652 1925 c-43 -19 -39 -46 8 -58 55 -14 73 -35 66 -77 -17 -95 -3
-112 52 -65 42 35 50 82 25 132 -35 67 -94 93 -151 68z"/>
<path d="M2285 1620 c-27 -30 -12 -64 48 -109 100 -76 213 -108 342 -98 154
11 296 114 223 161 -13 8 -24 6 -45 -10 -120 -88 -356 -72 -472 32 -55 49 -70
53 -96 24z"/>
</g>
</svg>
